<svg width="86" height="19" viewBox="0 0 86 19" fill="none" xmlns="http://www.w3.org/2000/svg">
<path d="M0.397598 16.4706V0.0996094H2.46855C2.98319 0.0996094 3.40036 0.518147 3.40036 1.03448V14.799C3.40036 15.0733 3.62257 15.2963 3.896 15.2963H7.94787C8.46251 15.2963 8.87968 15.7148 8.87968 16.2311V17.9616H1.88452C1.06341 17.9616 0.397598 17.2936 0.397598 16.4698V16.4706Z" fill="white"/>
<path d="M8.30225 10.9343C8.30225 6.85506 10.8267 4.16233 14.4672 4.16233C18.3473 4.16233 20.4992 6.74814 20.4992 10.3476C20.4992 10.8274 20.4463 11.3877 20.3926 11.6537H11.1448C11.3042 13.9735 12.6598 15.7753 14.7059 15.7753C16.4002 15.7753 17.3865 15.2117 18.0028 14.5553C18.3183 14.2188 18.8503 14.2147 19.1832 14.5338L20.2869 15.5946C19.3038 17.0873 17.5501 18.2277 14.6795 18.2277C10.8267 18.2277 8.30225 14.9855 8.30225 10.9327V10.9343ZM11.172 9.73426H17.8153C17.603 7.68136 16.4333 6.56167 14.4672 6.56167C12.6333 6.56167 11.4116 7.62832 11.172 9.73426Z" fill="white"/>
<path d="M21.4822 17.9625V4.23111H23.6324C24.0884 4.23111 24.4585 4.60241 24.4585 5.0599V7.77667C24.9368 5.72376 26.2651 3.96425 28.8433 3.96425C31.4215 3.96425 32.9092 5.48424 32.9092 8.17697V17.9625H29.9064V9.08367C29.9064 7.48411 29.3753 6.39094 27.382 6.39094C25.2028 6.39094 24.4585 7.80402 24.4585 9.93649V17.9616H21.4822V17.9625Z" fill="white"/>
<path d="M33.8477 10.9857C33.8477 6.80036 35.8674 4.21371 39.0032 4.21371C41.5805 4.21371 42.7238 5.9467 43.1484 7.97309V0.0996094H45.2987C45.7547 0.0996094 46.1247 0.470906 46.1247 0.928397V17.9625H43.1484V14.523C42.723 16.5229 41.6334 18.2559 39.0561 18.2559C35.8674 18.2559 33.8477 15.1719 33.8477 10.9857ZM40.1985 15.8292C42.2711 15.8292 43.1484 14.4426 43.1484 12.3101V10.186C43.1484 8.05348 42.2711 6.6404 40.1721 6.6404C38.3118 6.6404 36.9033 8.08 36.9033 10.9857C36.9033 13.8915 38.3118 15.8292 40.1985 15.8292Z" fill="white"/>
<path d="M80.2357 18.2559C77.6583 18.2559 76.5687 16.5229 76.1433 14.523V17.9625H73.167V0.0996094H75.3172C75.7732 0.0996094 76.1433 0.470906 76.1433 0.928397V7.97309C76.5687 5.9467 77.7112 4.21371 80.2885 4.21371C83.4243 4.21371 85.444 6.79953 85.444 10.9857C85.444 15.1719 83.4243 18.2559 80.2357 18.2559ZM82.3884 10.9857C82.3884 8.08 80.98 6.6404 79.1197 6.6404C77.0206 6.6404 76.1433 8.05348 76.1433 10.186V12.3101C76.1433 14.4426 77.0206 15.8292 79.0932 15.8292C80.98 15.8292 82.3884 13.918 82.3884 10.9857Z" fill="white"/>
<path d="M47.5529 17.9625V0.0996094H49.7032C50.16 0.0996094 50.5293 0.470906 50.5293 0.928397V8.02613C51.0075 5.97323 52.3359 4.21371 54.914 4.21371C57.4922 4.21371 58.9799 5.73371 58.9799 8.42644V17.9625H55.9772V9.33313C55.9772 7.73357 55.446 6.6404 53.4527 6.6404C51.2735 6.6404 50.5293 8.55159 50.5293 10.6841V17.9625H47.5529Z" fill="white"/>
<path d="M60.2652 14.0166V4.23112H62.4155C62.8715 4.23112 63.2416 4.60241 63.2416 5.0599V13.1099C63.2416 14.7095 63.7727 15.8026 65.766 15.8026C67.9452 15.8026 68.6895 14.3896 68.6895 12.2571V4.23112H70.8662C71.3222 4.23112 71.6922 4.60241 71.6922 5.0599V17.9625H68.6895V14.4169C68.2112 16.4698 66.8829 18.2293 64.3047 18.2293C61.7265 18.2293 60.2652 16.7093 60.2652 14.0166Z" fill="white"/>
</svg>
